<svg id="Capa_1" enable-background="new 0 0 512 512" height="512" viewBox="0 0 512 512" width="512" xmlns="http://www.w3.org/2000/svg"><g><g><path d="m256 7.488c-119.498 0-216.371 96.872-216.371 216.371 0 74.689 37.844 140.54 95.403 179.423-.205 19.994-3.574 57.04-23.371 86.277-4.594 6.785.792 15.83 8.932 14.885 29.934-3.477 82.81-16.65 115.166-65.164 6.665.619 13.414.95 20.24.95 119.499 0 216.371-96.873 216.371-216.371.001-119.499-96.871-216.371-216.37-216.371z" fill="#f9f3f1"/></g><g><path d="m472.374 223.861c0 119.499-96.875 216.364-216.374 216.364-6.829 0-13.578-.33-20.238-.948-32.358 48.512-85.234 61.691-115.166 65.166-7.937.929-13.249-7.638-9.265-14.357 29.567-5.855 76.337-25.565 106.31-64.433 3.738-4.847 9.622-7.495 15.736-7.205 3.373.16 6.768.242 10.182.242 119.499 0 210.773-88.299 210.773-207.797 0-68.411-31.749-129.403-81.31-169.04 59.775 38.488 99.352 105.631 99.352 182.008z" fill="#efe2dd"/></g><g><path d="m360.326 185.041h-48.295c-9.507 0-17.213-7.707-17.213-17.213v-48.295c0-9.507-7.707-17.213-17.213-17.213h-43.21c-9.507 0-17.213 7.707-17.213 17.213v48.295c0 9.507-7.707 17.213-17.213 17.213h-48.295c-9.507 0-17.213 7.707-17.213 17.213v43.21c0 9.507 7.707 17.213 17.213 17.213h48.295c9.507 0 17.213 7.707 17.213 17.213v48.295c0 9.507 7.707 17.213 17.213 17.213h43.21c9.507 0 17.213-7.707 17.213-17.213v-48.295c0-9.507 7.707-17.213 17.213-17.213h48.295c9.507 0 17.213-7.707 17.213-17.213v-43.21c0-9.506-7.707-17.213-17.213-17.213z" fill="#ee6161"/></g><g><path d="m292.062 262.679h19.968c-9.505 0-17.212 7.708-17.212 17.212v48.293c0 9.505-7.708 17.212-17.212 17.212h-19.968c9.505 0 17.212-7.708 17.212-17.212v-48.293c0-9.504 7.708-17.212 17.212-17.212z" fill="#e94444"/></g><g><path d="m312.03 185.043h-19.968c-9.505 0-17.212-7.708-17.212-17.212v-48.303c0-9.505-7.708-17.212-17.212-17.212h19.968c9.505 0 17.212 7.708 17.212 17.212v48.303c0 9.505 7.708 17.212 17.212 17.212z" fill="#e94444"/></g><g><path d="m377.536 202.256v43.211c0 9.505-7.708 17.212-17.212 17.212h-19.968c9.505 0 17.212-7.708 17.212-17.212v-43.211c0-9.505-7.708-17.212-17.212-17.212h19.968c9.504-.001 17.212 7.707 17.212 17.212z" fill="#e94444"/></g><g><path d="m234.395 352.886h43.209c13.621 0 24.702-11.081 24.702-24.701v-48.295c0-5.362 4.362-9.725 9.725-9.725h48.295c13.621 0 24.702-11.081 24.702-24.701v-43.21c0-13.62-11.081-24.701-24.702-24.701h-48.295c-5.363 0-9.725-4.363-9.725-9.725v-48.295c0-13.62-11.081-24.701-24.702-24.701h-43.209c-13.621 0-24.702 11.081-24.702 24.701v5.344c0 4.135 3.352 7.488 7.488 7.488s7.488-3.353 7.488-7.488v-5.344c0-5.362 4.363-9.725 9.726-9.725h43.209c5.362 0 9.726 4.363 9.726 9.725v48.295c0 13.62 11.081 24.701 24.701 24.701h48.295c5.363 0 9.726 4.363 9.726 9.725v43.21c0 5.363-4.363 9.725-9.726 9.725h-48.295c-13.62 0-24.701 11.081-24.701 24.701v48.295c0 5.363-4.363 9.725-9.726 9.725h-43.209c-5.362 0-9.726-4.363-9.726-9.725v-48.295c0-13.62-11.081-24.701-24.701-24.701h-48.295c-5.363 0-9.725-4.363-9.725-9.725v-43.21c0-5.362 4.362-9.725 9.725-9.725h48.295c13.62 0 24.701-11.081 24.701-24.701v-8.769c0-4.135-3.352-7.488-7.488-7.488s-7.488 3.353-7.488 7.488v8.769c0 5.363-4.362 9.725-9.725 9.725h-48.295c-13.62 0-24.701 11.081-24.701 24.701v43.21c0 13.62 11.081 24.701 24.701 24.701h48.295c5.363 0 9.725 4.363 9.725 9.725v48.295c.001 13.62 11.082 24.701 24.702 24.701z"/><path d="m414.292 65.567c-42.281-42.282-98.498-65.567-158.292-65.567s-116.011 23.285-158.292 65.567c-42.282 42.281-65.567 98.497-65.567 158.292 0 73.116 35.558 141.329 95.323 183.302-.596 19.528-4.483 52.324-22.003 78.2-3.803 5.617-3.987 12.698-.478 18.478 3.127 5.15 8.534 8.161 14.442 8.161.672 0 1.35-.039 2.032-.118 29.58-3.435 83.585-16.443 118.005-64.78 5.556.409 11.1.616 16.538.616 63.785 0 124.722-27.332 167.187-74.987 2.751-3.088 2.479-7.821-.609-10.572s-7.82-2.478-10.572.609c-39.626 44.47-96.487 69.974-156.005 69.974-6.412 0-12.988-.309-19.548-.917-2.731-.252-5.396 1.012-6.922 3.301-30.903 46.335-82.058 58.659-109.801 61.88-.854.102-1.507-.217-1.944-.938-.262-.433-.603-1.308.076-2.31 20.965-30.962 24.449-69.928 24.66-90.398.025-2.515-1.213-4.875-3.297-6.282-57.675-38.962-92.108-103.716-92.108-173.219 0-115.178 93.705-208.883 208.883-208.883 115.179 0 208.884 93.705 208.884 208.883 0 39.961-11.318 78.797-32.729 112.307-2.226 3.485-1.206 8.115 2.279 10.341 3.486 2.227 8.114 1.208 10.342-2.278 22.952-35.923 35.084-77.546 35.084-120.371-.001-59.794-23.286-116.01-65.568-158.291z"/></g></g></svg>