<svg width="512" height="512" xmlns="http://www.w3.org/2000/svg">

 <g>
  <title>background</title>
  <rect fill="none" id="canvas_background" height="402" width="582" y="-1" x="-1"/>
 </g>
 <g>
  <title>Layer 1</title>
  <path id="svg_4" fill="#ffd900" d="m239.433,57.2c0,9.15 7.417,16.567 16.567,16.567c9.149,0 16.567,-7.417 16.567,-16.567l0,-33.133c0,-9.15 -7.417,-16.567 -16.567,-16.567s-16.567,7.417 -16.567,16.567l0,33.133z"/>
  <path id="svg_6" fill="#ffd900" d="m239.433,487.933c0,9.15 7.417,16.567 16.567,16.567c9.149,0 16.567,-7.417 16.567,-16.567l0,-33.133c0,-9.149 -7.417,-16.567 -16.567,-16.567s-16.567,7.417 -16.567,16.567l0,33.133z"/>
  <path id="svg_8" fill="#ffd900" d="m454.8,239.433c-9.149,0 -16.567,7.417 -16.567,16.567s7.417,16.567 16.567,16.567l33.133,0c9.15,0 16.567,-7.417 16.567,-16.567s-7.417,-16.567 -16.567,-16.567l-33.133,0z"/>
  <path id="svg_10" fill="#ffd900" d="m24.067,239.433c-9.15,0 -16.567,7.417 -16.567,16.567s7.417,16.567 16.567,16.567l33.133,0c9.149,0 16.567,-7.417 16.567,-16.567s-7.417,-16.567 -16.567,-16.567l-33.133,0z"/>
  <path id="svg_14" fill="#ffd900" d="m384.858,103.713c-6.47,6.47 -6.47,16.959 0,23.429s16.959,6.47 23.429,0l23.429,-23.429c6.47,-6.47 6.47,-16.959 0,-23.429s-16.959,-6.47 -23.429,0l-23.429,23.429z"/>
  <path id="svg_16" fill="#ffd900" d="m80.284,408.287c-6.47,6.47 -6.47,16.959 0,23.429s16.959,6.47 23.429,0l23.429,-23.429c6.47,-6.47 6.47,-16.959 0,-23.429s-16.959,-6.47 -23.429,0l-23.429,23.429z"/>
  <path id="svg_18" fill="#ffd900" d="m408.287,384.858c-6.47,-6.47 -16.959,-6.47 -23.429,0s-6.47,16.959 0,23.429l23.429,23.429c6.47,6.47 16.959,6.47 23.429,0s6.47,-16.959 0,-23.429l-23.429,-23.429z"/>
  <path id="svg_20" fill="#ffd900" d="m103.713,80.284c-6.47,-6.47 -16.959,-6.47 -23.429,0s-6.47,16.959 0,23.429l23.429,23.429c6.47,6.47 16.959,6.47 23.429,0s6.47,-16.959 0,-23.429l-23.429,-23.429z"/>
  <path id="svg_24" fill="#fb0" d="m57.2,239.433l-23,0c9.149,0 16.567,7.417 16.567,16.567c0,9.149 -7.417,16.567 -16.567,16.567l23,0c9.149,0 16.567,-7.417 16.567,-16.567c0,-9.149 -7.418,-16.567 -16.567,-16.567z"/>
  <path id="svg_26" fill="#fb0" d="m487.933,239.433l-23,0c9.15,0 16.567,7.417 16.567,16.567c0,9.149 -7.417,16.567 -16.567,16.567l23,0c9.15,0 16.567,-7.417 16.567,-16.567c0,-9.149 -7.417,-16.567 -16.567,-16.567z"/>
  <path id="svg_28" fill="#fb0" d="m256,7.5c-4.471,0 -8.52,1.779 -11.5,4.657c3.119,3.013 5.067,7.23 5.067,11.91l0,33.133c0,4.679 -1.948,8.897 -5.067,11.909c2.98,2.878 7.029,4.657 11.5,4.657c9.149,0 16.567,-7.417 16.567,-16.567l0,-33.132c0,-9.15 -7.418,-16.567 -16.567,-16.567z"/>
  <path id="svg_30" fill="#fb0" d="m256,438.233c-4.471,0 -8.52,1.779 -11.5,4.657c3.119,3.013 5.067,7.23 5.067,11.909l0,33.133c0,4.679 -1.948,8.897 -5.067,11.909c2.98,2.878 7.029,4.657 11.5,4.657c9.149,0 16.567,-7.417 16.567,-16.567l0,-33.131c0,-9.15 -7.418,-16.567 -16.567,-16.567z"/>
  <path id="svg_32" fill="#fb0" d="m431.716,80.284c-6.401,-6.401 -16.73,-6.458 -23.214,-0.194c0.07,0.068 0.145,0.125 0.214,0.194c6.47,6.47 6.47,16.959 0,23.429l-23.429,23.429c-0.069,0.069 -0.145,0.126 -0.214,0.194c6.485,6.264 16.814,6.207 23.214,-0.194l23.429,-23.429c6.47,-6.47 6.47,-16.959 0,-23.429z"/>
  <path id="svg_34" fill="#fb0" d="m431.716,408.287l-23.429,-23.429c-6.401,-6.401 -16.73,-6.458 -23.214,-0.194c0.07,0.067 0.145,0.125 0.214,0.194l23.429,23.429c6.47,6.47 6.47,16.959 0,23.429c-0.069,0.069 -0.145,0.126 -0.214,0.194c6.484,6.265 16.813,6.207 23.214,-0.194c6.47,-6.47 6.47,-16.959 0,-23.429z"/>
  <path id="svg_36" fill="#fb0" d="m127.142,103.713l-23.429,-23.429c-6.393,-6.393 -16.703,-6.457 -23.189,-0.216c0.078,0.075 0.163,0.139 0.239,0.216l23.429,23.429c6.47,6.47 6.47,16.959 0,23.429c-0.077,0.077 -0.161,0.141 -0.239,0.216c6.486,6.241 16.797,6.176 23.189,-0.216c6.469,-6.47 6.469,-16.96 0,-23.429z"/>
  <path id="svg_38" fill="#fb0" d="m127.142,384.858c-6.393,-6.393 -16.703,-6.457 -23.189,-0.216c0.078,0.075 0.162,0.139 0.239,0.216c6.47,6.47 6.47,16.959 0,23.429l-23.429,23.429c-0.077,0.077 -0.161,0.141 -0.239,0.216c6.486,6.241 16.797,6.176 23.189,-0.216l23.429,-23.429c6.469,-6.47 6.469,-16.959 0,-23.429z"/>
  <path id="svg_40" d="m256,81.267c13.27,0 24.066,-10.796 24.066,-24.066l0,-33.135c0,-13.27 -10.796,-24.066 -24.066,-24.066c-13.271,0 -24.067,10.796 -24.067,24.066l0,33.134c0,13.271 10.796,24.067 24.067,24.067zm-9.067,-57.201c0,-4.999 4.067,-9.066 9.067,-9.066c4.999,0 9.066,4.067 9.066,9.066l0,33.134c0,4.999 -4.067,9.066 -9.066,9.066c-5,0 -9.067,-4.067 -9.067,-9.066l0,-33.134z"/>
  <path id="svg_41" d="m256,430.733c-13.271,0 -24.067,10.796 -24.067,24.066l0,33.134c0,13.271 10.796,24.067 24.067,24.067c13.27,0 24.066,-10.796 24.066,-24.066l0,-33.134c0,-13.271 -10.796,-24.067 -24.066,-24.067zm9.066,57.201c0,4.999 -4.067,9.066 -9.066,9.066c-5,0 -9.067,-4.067 -9.067,-9.066l0,-33.134c0,-4.999 4.067,-9.066 9.067,-9.066c4.999,0 9.066,4.067 9.066,9.066l0,33.134z"/>
  <path id="svg_42" d="m487.934,231.934l-33.134,0c-13.271,0 -24.066,10.796 -24.066,24.066c0,13.271 10.796,24.066 24.066,24.066l33.134,0c13.27,0 24.066,-10.795 24.066,-24.066c0,-13.27 -10.796,-24.066 -24.066,-24.066zm0,33.132l-33.134,0c-4.999,0 -9.066,-4.067 -9.066,-9.066s4.067,-9.066 9.066,-9.066l33.134,0c4.999,0 9.066,4.067 9.066,9.066s-4.067,9.066 -9.066,9.066z"/>
  <path id="svg_43" d="m81.267,256c0,-13.27 -10.796,-24.066 -24.066,-24.066l-33.134,0c-13.271,0 -24.067,10.796 -24.067,24.066c0,13.271 10.796,24.066 24.067,24.066l33.133,0c13.27,0 24.067,-10.795 24.067,-24.066zm-66.267,0c0,-4.999 4.067,-9.066 9.067,-9.066l33.133,0c4.999,0 9.066,4.067 9.066,9.066s-4.067,9.066 -9.066,9.066l-33.133,0c-5,0 -9.067,-4.067 -9.067,-9.066z"/>
  <path id="svg_45" d="m396.573,139.482c6.162,0 12.325,-2.346 17.018,-7.037l23.429,-23.429c9.383,-9.384 9.383,-24.652 0,-34.036c-9.384,-9.383 -24.65,-9.383 -34.036,0l-23.429,23.429c-9.383,9.384 -9.383,24.652 0,34.036c4.692,4.692 10.855,7.037 17.018,7.037zm-6.411,-30.465l23.429,-23.429c1.768,-1.768 4.089,-2.651 6.41,-2.651c2.322,0 4.643,0.884 6.411,2.651c3.535,3.534 3.535,9.287 0,12.821l-23.429,23.429c-3.535,3.536 -9.286,3.534 -12.821,0s-3.535,-9.287 0,-12.821z"/>
  <path id="svg_46" d="m98.41,379.555l-23.429,23.429c-9.384,9.384 -9.384,24.652 0,34.036c4.692,4.691 10.854,7.037 17.017,7.037s12.326,-2.346 17.018,-7.037l23.429,-23.429c9.384,-9.384 9.384,-24.652 0,-34.036c-9.384,-9.383 -24.652,-9.383 -34.035,0zm23.428,23.428l-23.428,23.429c-3.535,3.535 -9.287,3.535 -12.822,0c-3.535,-3.534 -3.535,-9.287 0,-12.821l23.429,-23.429c1.768,-1.768 4.089,-2.651 6.411,-2.651s4.644,0.884 6.411,2.651c3.534,3.534 3.534,9.287 -0.001,12.821z"/>
  <path id="svg_47" d="m413.591,379.555c-9.386,-9.383 -24.652,-9.382 -34.036,0c-9.383,9.384 -9.383,24.652 0,34.036l23.429,23.429c4.692,4.691 10.855,7.037 17.018,7.037s12.326,-2.346 17.018,-7.037c9.383,-9.384 9.383,-24.652 0,-34.036l-23.429,-23.429zm12.821,46.857c-3.535,3.534 -9.286,3.536 -12.821,0l-23.429,-23.429c-3.535,-3.534 -3.535,-9.287 0,-12.821c1.768,-1.768 4.089,-2.651 6.411,-2.651c2.321,0 4.643,0.884 6.41,2.651l23.429,23.429c3.535,3.534 3.535,9.287 0,12.821z"/>
  <path id="svg_48" d="m98.41,132.445c4.692,4.691 10.854,7.037 17.017,7.037s12.326,-2.346 17.018,-7.037c9.384,-9.384 9.384,-24.652 0,-34.036l-23.429,-23.429c-9.384,-9.383 -24.651,-9.383 -34.035,0c-9.384,9.384 -9.384,24.652 0,34.036l23.429,23.429zm-12.823,-46.857c1.768,-1.768 4.089,-2.651 6.411,-2.651s4.644,0.884 6.411,2.651l23.429,23.429c3.535,3.534 3.535,9.287 0,12.821c-3.535,3.535 -9.287,3.535 -12.822,0l-23.429,-23.429c-3.535,-3.534 -3.535,-9.287 0,-12.821z"/>
  <path id="svg_49" d="m172.995,75.211c1.196,2.889 3.989,4.632 6.932,4.632c0.957,0 1.929,-0.185 2.867,-0.573c3.827,-1.585 5.644,-5.972 4.059,-9.799l-6.34,-15.306c-1.585,-3.827 -5.973,-5.642 -9.799,-4.059c-3.827,1.585 -5.644,5.972 -4.059,9.799l6.34,15.306z"/>
  <path id="svg_50" d="m339.008,436.806c-1.585,-3.827 -5.972,-5.645 -9.799,-4.059c-3.827,1.585 -5.645,5.972 -4.059,9.799l6.34,15.306c1.196,2.889 3.988,4.632 6.932,4.632c0.956,0 1.929,-0.185 2.867,-0.573c3.827,-1.585 5.645,-5.972 4.059,-9.799l-6.34,-15.306z"/>
  <path id="svg_51" d="m54.17,180.531l15.306,6.34c0.938,0.39 1.911,0.573 2.867,0.573c2.943,0 5.736,-1.744 6.932,-4.632c1.585,-3.827 -0.232,-8.214 -4.059,-9.799l-15.306,-6.34c-3.826,-1.589 -8.214,0.232 -9.799,4.059c-1.585,3.828 0.233,8.214 4.059,9.799z"/>
  <path id="svg_52" d="m457.856,331.509l-15.306,-6.34c-3.824,-1.587 -8.213,0.232 -9.799,4.059s0.231,8.214 4.058,9.799l15.306,6.34c0.938,0.39 1.91,0.573 2.867,0.573c2.943,0 5.735,-1.744 6.932,-4.632c1.587,-3.828 -0.23,-8.214 -4.058,-9.799z"/>
  <path id="svg_53" d="m79.292,329.228c-1.586,-3.827 -5.973,-5.643 -9.799,-4.059l-15.306,6.34c-3.827,1.585 -5.644,5.972 -4.059,9.799c1.196,2.889 3.989,4.632 6.932,4.632c0.957,0 1.929,-0.185 2.867,-0.573l15.306,-6.34c3.827,-1.586 5.644,-5.972 4.059,-9.799z"/>
  <path id="svg_54" d="m432.769,182.813c1.196,2.889 3.988,4.632 6.932,4.632c0.956,0 1.929,-0.185 2.867,-0.573l15.306,-6.34c3.827,-1.585 5.645,-5.972 4.059,-9.799c-1.585,-3.827 -5.973,-5.644 -9.799,-4.059l-15.306,6.34c-3.828,1.585 -5.645,5.971 -4.059,9.799z"/>
  <path id="svg_55" d="m182.834,432.747c-3.827,-1.589 -8.215,0.232 -9.799,4.059l-6.34,15.306c-1.585,3.827 0.232,8.214 4.059,9.799c0.939,0.39 1.911,0.573 2.867,0.573c2.943,0 5.736,-1.744 6.932,-4.632l6.34,-15.306c1.585,-3.827 -0.232,-8.214 -4.059,-9.799z"/>
  <path id="svg_56" d="m329.249,79.27c0.939,0.39 1.91,0.573 2.867,0.573c2.943,0 5.735,-1.744 6.932,-4.632l6.34,-15.306c1.586,-3.827 -0.231,-8.214 -4.059,-9.799c-3.823,-1.587 -8.213,0.233 -9.799,4.059l-6.34,15.306c-1.586,3.827 0.232,8.214 4.059,9.799z"/>
 </g>
</svg>