<svg width="512" height="512" xmlns="http://www.w3.org/2000/svg">

 <g>
  <title>background</title>
  <rect fill="none" id="canvas_background" height="402" width="582" y="-1" x="-1"/>
 </g>
 <g>
  <title>Layer 1</title>
  <path id="svg_3" fill="#ffffaa" d="m256,7.5c106.001,0 191.931,85.93 191.931,191.931c0,155.565 -191.931,305.069 -191.931,305.069s-191.931,-149.504 -191.931,-305.069c0,-106.001 85.93,-191.931 191.931,-191.931z"/>
  <path id="svg_5" fill="#ffff56" d="m346.491,28.84965c20.905,31.779 33.08,69.812 33.08,110.694c0,134.947 -137.431,265.549 -185.403,307.026c34.251,35.153 61.832,56.64 61.832,56.64s191.931,-149.504 191.931,-305.069c0,-73.276 -41.069,-136.953 -101.44,-169.291z"/>
  <circle id="svg_7" r="147.484" fill="#d3effd" cy="199.431" cx="256"/>
  <path id="svg_10" fill="#4172ca" d="m288.325,221.654c0,-17.853 -14.473,-32.325 -32.325,-32.325s-32.325,14.473 -32.325,32.325c-17.853,0 -32.325,14.473 -32.325,32.325s14.473,32.325 32.325,32.325s46.798,0 64.65,0c17.853,0 32.325,-14.473 32.325,-32.325s-14.472,-32.325 -32.325,-32.325z"/>
  <path id="svg_12" fill="#4172ca" d="m239.396,126.457c3.484,10.6 0.87,31.614 -9.73,35.098s-25.172,-11.881 -28.656,-22.481s2.285,-22.017 12.885,-25.502s22.017,2.285 25.501,12.885z"/>
  <path id="svg_14" fill="#4172ca" d="m180.814,167.17c7.217,8.509 12.704,28.962 4.194,36.18c-8.509,7.217 -27.792,-1.534 -35.01,-10.044c-7.217,-8.509 -6.17,-21.258 2.34,-28.476c8.51,-7.217 21.259,-6.169 28.476,2.34z"/>
  <path id="svg_16" fill="#4172ca" d="m272.604,126.457c-3.484,10.6 -0.87,31.614 9.73,35.098s25.172,-11.881 28.656,-22.481s-2.285,-22.017 -12.885,-25.502c-10.6,-3.484 -22.017,2.285 -25.501,12.885z"/>
  <path id="svg_18" fill="#4172ca" d="m331.186,167.17c-7.217,8.509 -12.704,28.962 -4.194,36.18c8.509,7.217 27.792,-1.534 35.01,-10.044c7.217,-8.509 6.17,-21.258 -2.34,-28.476c-8.51,-7.217 -21.259,-6.169 -28.476,2.34z"/>
  <path id="svg_20" d="m256,0c-109.966,0 -199.43,89.464 -199.43,199.43c0,36.662 10.357,75.912 30.785,116.659c16.184,32.284 38.709,65.611 66.95,99.054c47.933,56.762 96.601,94.896 97.086,95.274c1.355,1.056 2.982,1.583 4.609,1.583s3.254,-0.527 4.609,-1.583c0.841,-0.655 84.759,-66.533 141.624,-155.177c2.236,-3.486 1.223,-8.126 -2.263,-10.362c-3.489,-2.239 -8.126,-1.224 -10.363,2.263c-47.864,74.614 -115.492,132.797 -133.61,147.717c-13.059,-10.737 -51.813,-43.897 -90.231,-89.393c-27.478,-32.539 -49.347,-64.871 -65.001,-96.098c-19.373,-38.641 -29.195,-75.63 -29.195,-109.937c0,-101.696 82.735,-184.43 184.43,-184.43s184.43,82.734 184.43,184.43c0,36.718 -11.237,76.44 -33.4,118.065c-1.947,3.655 -0.561,8.198 3.095,10.145c3.656,1.945 8.198,0.562 10.145,-3.096c23.331,-43.817 35.16,-85.912 35.16,-125.114c0,-109.966 -89.464,-199.43 -199.43,-199.43z"/>
  <path id="svg_21" d="m133.915,116.327c-3.535,-2.155 -8.151,-1.037 -10.308,2.498c-14.776,24.229 -22.586,52.103 -22.586,80.604c0,85.456 69.524,154.98 154.98,154.98s154.98,-69.524 154.98,-154.98s-69.525,-154.979 -154.981,-154.979c-41.462,0 -80.421,16.167 -109.7,45.523c-2.925,2.933 -2.919,7.681 0.014,10.606s7.682,2.919 10.606,-0.015c26.445,-26.512 61.632,-41.114 99.08,-41.114c77.185,0 139.98,62.795 139.98,139.979c0,77.186 -62.795,139.98 -139.98,139.98s-139.98,-62.795 -139.98,-139.98c0,-25.746 7.052,-50.918 20.393,-72.794c2.157,-3.536 1.038,-8.151 -2.498,-10.308z"/>
  <path id="svg_22" d="m216.769,214.749c-18.679,3.278 -32.918,19.623 -32.918,39.231c0,21.956 17.863,39.819 39.82,39.819l14.83,0c4.142,0 7.5,-3.357 7.5,-7.5s-3.358,-7.5 -7.5,-7.5l-14.83,0c-13.686,0 -24.82,-11.134 -24.82,-24.819c0,-13.691 11.134,-24.83 24.82,-24.83c4.142,0 7.5,-3.357 7.5,-7.5c0,-13.686 11.139,-24.82 24.83,-24.82s24.83,11.135 24.83,24.82c0,4.143 3.358,7.5 7.5,7.5c13.686,0 24.82,11.139 24.82,24.83c0,13.686 -11.134,24.819 -24.82,24.819l-14.831,0c-4.142,0 -7.5,3.357 -7.5,7.5s3.358,7.5 7.5,7.5l14.83,0c21.957,0 39.82,-17.863 39.82,-39.819c0,-19.608 -14.24,-35.953 -32.918,-39.231c-3.279,-18.679 -19.624,-32.919 -39.232,-32.919s-35.953,14.24 -39.231,32.919z"/>
  <path id="svg_23" d="m211.552,106.447c-14.511,4.771 -22.437,20.457 -17.667,34.969c3.687,11.215 17.941,28.16 32.495,28.16c1.877,0 3.762,-0.282 5.628,-0.896c16.325,-5.366 18.674,-31.903 14.513,-44.565c-4.77,-14.511 -20.456,-22.437 -34.969,-17.668zm15.772,47.984c-4.861,1.594 -16.328,-8.992 -19.189,-17.698c-2.187,-6.654 1.447,-13.848 8.101,-16.035c1.312,-0.431 2.646,-0.636 3.957,-0.636c5.34,0 10.322,3.396 12.078,8.737c2.861,8.706 -0.098,24.038 -4.947,25.632z"/>
  <path id="svg_24" d="m147.487,159.11c-11.649,9.881 -13.088,27.397 -3.208,39.048c4.542,5.354 12.315,10.396 20.287,13.154c4.274,1.479 8.312,2.215 11.998,2.215c5.26,0 9.804,-1.496 13.296,-4.458c5.939,-5.037 8.192,-13.77 6.342,-24.589c-1.421,-8.314 -5.126,-16.807 -9.668,-22.162c-9.882,-11.648 -27.398,-13.088 -39.047,-3.208zm32.67,38.52c-1.335,1.135 -5.157,1.422 -10.685,-0.491c-5.41,-1.873 -10.938,-5.362 -13.754,-8.684c-4.531,-5.342 -3.871,-13.374 1.471,-17.905c2.384,-2.021 5.302,-3.01 8.207,-3.01c3.605,0 7.189,1.523 9.698,4.481c2.816,3.321 5.357,9.344 6.322,14.987c0.985,5.764 0.078,9.488 -1.259,10.622z"/>
  <path id="svg_25" d="m300.447,106.447c-14.511,-4.771 -30.198,3.156 -34.968,17.668c-4.161,12.662 -1.812,39.199 14.514,44.565c1.866,0.613 3.749,0.896 5.627,0.896c14.553,0 28.809,-16.946 32.495,-28.16c4.77,-14.512 -3.156,-30.198 -17.668,-34.969zm3.418,30.285c-2.862,8.706 -14.349,19.291 -19.188,17.698c-4.85,-1.594 -7.809,-16.926 -4.948,-25.632c2.188,-6.654 9.384,-10.285 16.034,-8.102c6.655,2.189 10.289,9.382 8.102,16.036z"/>
  <path id="svg_26" d="m322.14,209.069c3.492,2.962 8.036,4.458 13.296,4.458c3.686,0 7.725,-0.735 11.998,-2.215c7.971,-2.759 15.745,-7.8 20.287,-13.154c9.88,-11.65 8.441,-29.167 -3.208,-39.048c-11.649,-9.882 -29.166,-8.441 -39.046,3.208c-4.542,5.355 -8.247,13.848 -9.668,22.162c-1.85,10.82 0.402,19.552 6.341,24.589zm8.444,-22.06c0.965,-5.644 3.505,-11.666 6.322,-14.987c4.531,-5.342 12.563,-6.003 17.904,-1.472c5.342,4.531 6.002,12.563 1.472,17.905c-2.816,3.321 -8.344,6.811 -13.754,8.684c-5.525,1.913 -9.347,1.626 -10.685,0.491c-1.337,-1.134 -2.244,-4.858 -1.259,-10.621z"/>
 </g>
</svg>